<svg xmlns="http://www.w3.org/2000/svg" xmlns:xlink="http://www.w3.org/1999/xlink" width="23" height="23" viewBox="0 0 23 23">
  <defs>
    <clipPath id="clip-path">
      <rect id="Rectangle_6" data-name="Rectangle 6" width="23" height="23" transform="translate(35.75)" fill="#fff" stroke="#707070" stroke-width="1"/>
    </clipPath>
  </defs>
  <g id="bar-icon-cogs" transform="translate(-35.75)" opacity="0.8" clip-path="url(#clip-path)">
    <g id="Settings" transform="translate(35.75 0)">
      <g id="Group_3" data-name="Group 3">
        <path id="Path_8" data-name="Path 8" d="M22.928,10.223a.749.749,0,0,0-.739-.566,2.539,2.539,0,0,1-1.738-4.42.639.639,0,0,0,.07-.867A11.38,11.38,0,0,0,18.7,2.53a.64.64,0,0,0-.874.071,2.651,2.651,0,0,1-2.868.644A2.554,2.554,0,0,1,13.4.748a.638.638,0,0,0-.564-.672A11.481,11.481,0,0,0,10.251.07a.64.64,0,0,0-.569.658A2.559,2.559,0,0,1,8.107,3.181,2.658,2.658,0,0,1,5.26,2.533a.641.641,0,0,0-.868-.073A11.423,11.423,0,0,0,2.532,4.3a.64.64,0,0,0,.069.874,2.548,2.548,0,0,1,.643,2.869A2.659,2.659,0,0,1,.741,9.6a.625.625,0,0,0-.664.565,11.52,11.52,0,0,0,0,2.615.761.761,0,0,0,.754.565,2.522,2.522,0,0,1,2.366,1.576,2.557,2.557,0,0,1-.643,2.844.639.639,0,0,0-.07.867A11.421,11.421,0,0,0,4.3,20.47a.639.639,0,0,0,.875-.069,2.646,2.646,0,0,1,2.867-.645,2.55,2.55,0,0,1,1.556,2.5.639.639,0,0,0,.564.672,11.445,11.445,0,0,0,2.587.007.64.64,0,0,0,.569-.659,2.556,2.556,0,0,1,1.573-2.452,2.654,2.654,0,0,1,2.848.648.643.643,0,0,0,.868.073,11.449,11.449,0,0,0,1.86-1.839.638.638,0,0,0-.069-.874,2.548,2.548,0,0,1-.644-2.869A2.575,2.575,0,0,1,22.107,13.4l.142,0a.64.64,0,0,0,.673-.564A11.51,11.51,0,0,0,22.928,10.223ZM11.518,15.36a3.836,3.836,0,1,1,3.836-3.836A3.84,3.84,0,0,1,11.518,15.36Z" fill="#fff" fill-rule="evenodd"/>
      </g>
    </g>
  </g>
</svg>
