<?xml version="1.0" encoding="iso-8859-1"?>
<!-- Generator: Adobe Illustrator 19.0.0, SVG Export Plug-In . SVG Version: 6.00 Build 0)  -->
<svg version="1.1" id="Layer_1" xmlns="http://www.w3.org/2000/svg" xmlns:xlink="http://www.w3.org/1999/xlink" x="0px" y="0px"
	 viewBox="0 0 512 512" style="enable-background:new 0 0 512 512;" xml:space="preserve">
<g>
	<g>
		<path d="M494.933,85.45H287.297c-11.928,0-22.855,4.35-31.297,11.535c-8.442-7.185-19.368-11.535-31.297-11.535H17.067
			C7.641,85.45,0,93.091,0,102.517v275.668c0,9.425,7.641,17.067,17.067,17.067h207.636c7.818,0,14.18,6.337,14.228,14.145v0.088
			c0,9.425,7.641,17.067,17.067,17.067c0.001,0,0.001,0,0.002,0c0.001,0,0.001,0,0.002,0c9.425,0,17.067-7.641,17.067-17.067v-0.088
			c0.048-7.807,6.409-14.145,14.228-14.145h207.636c9.425,0,17.067-7.641,17.067-17.067V102.517
			C512,93.09,504.359,85.45,494.933,85.45z M187.108,318.669H85.961c-6.284,0-11.378-5.095-11.378-11.378
			c0-6.284,5.094-11.378,11.378-11.378h101.146c6.284,0,11.378,5.094,11.378,11.378
			C198.485,313.574,193.392,318.669,187.108,318.669z M187.108,253.673H85.961c-6.284,0-11.378-5.094-11.378-11.378
			s5.094-11.378,11.378-11.378h101.146c6.284,0,11.378,5.094,11.378,11.378C198.485,248.578,193.392,253.673,187.108,253.673z
			 M187.108,188.675H85.961c-6.284,0-11.378-5.094-11.378-11.378c0-6.284,5.094-11.378,11.378-11.378h101.146
			c6.284,0,11.378,5.094,11.378,11.378C198.485,183.581,193.392,188.675,187.108,188.675z M426.039,318.669H324.892
			c-6.283,0-11.378-5.095-11.378-11.378c0-6.284,5.095-11.378,11.378-11.378h101.146c6.283,0,11.378,5.094,11.378,11.378
			C437.416,313.574,432.323,318.669,426.039,318.669z M426.039,253.673H324.892c-6.283,0-11.378-5.094-11.378-11.378
			s5.095-11.378,11.378-11.378h101.146c6.283,0,11.378,5.094,11.378,11.378C437.416,248.578,432.323,253.673,426.039,253.673z
			 M426.039,188.675H324.892c-6.283,0-11.378-5.094-11.378-11.378c0-6.284,5.095-11.378,11.378-11.378h101.146
			c6.283,0,11.378,5.094,11.378,11.378C437.416,183.581,432.323,188.675,426.039,188.675z"/>
	</g>
</g>
<g>
</g>
<g>
</g>
<g>
</g>
<g>
</g>
<g>
</g>
<g>
</g>
<g>
</g>
<g>
</g>
<g>
</g>
<g>
</g>
<g>
</g>
<g>
</g>
<g>
</g>
<g>
</g>
<g>
</g>
</svg>
