<svg xmlns="http://www.w3.org/2000/svg" xmlns:xlink="http://www.w3.org/1999/xlink" width="10.65" height="10.65" viewBox="0 0 10.65 10.65">
  <defs>
    <clipPath id="clip-path">
      <rect id="Rectangle_26" data-name="Rectangle 26" width="10.65" height="10.65" transform="translate(-83.83 8.5)" fill="#3f3f3f"/>
    </clipPath>
  </defs>
  <g id="filter-icon" transform="translate(83.83 -8.5)" clip-path="url(#clip-path)">
    <g id="filter-tool-black-shape" transform="translate(-83.83 8.508)">
      <path id="Path_20" data-name="Path 20" d="M10.6.308a.452.452,0,0,0-.446-.295H.491A.452.452,0,0,0,.045.308.436.436,0,0,0,.151.836L3.875,4.56V8.231a.465.465,0,0,0,.143.34L5.952,10.5a.449.449,0,0,0,.34.144.526.526,0,0,0,.189-.038.452.452,0,0,0,.295-.446V4.56L10.5.836A.436.436,0,0,0,10.6.308Z" transform="translate(0 -0.013)" fill="#3f3f3f"/>
    </g>
  </g>
</svg>
